<?xml version="1.0" encoding="utf-8"?>
<svg version="1.1" id="Layer_1" xmlns="http://www.w3.org/2000/svg" xmlns:xlink="http://www.w3.org/1999/xlink" x="0px" y="0px"
	 viewBox="0 0 142 26" style="enable-background:new 0 0 142 26;" xml:space="preserve">
<style type="text/css">
	.st0{fill:#d81e05;}
	.st1{fill:#ffc61e;}
</style>
<g>
	<path class="st0" d="M14.9,20.5C13,24.7,9.4,26,6.8,26c-3.8,0-7.4-2.3-6.7-6.8L0.9,13c0.7-4.6,4.8-6.5,8.6-6.5
		c2.5,0,5.7,1.1,6.2,5.1l-5.4,1.6c-0.1-1.1-0.8-1.6-1.6-1.6c-0.9,0-1.8,0.5-1.9,1.6l-0.9,6c-0.1,1,0.6,1.6,1.4,1.6s1.8-0.5,2.3-1.6
		L14.9,20.5z"/>
	<path class="st0" d="M16.5,13.4c0.7-4.6,4.8-6.9,8.7-6.9c3.8,0,7.3,2.3,6.7,6.9L31,19.4c-0.6,4.4-4.8,6.6-8.6,6.6
		c-3.8,0-7.3-2.2-6.7-6.6L16.5,13.4z M22.5,13.3l-0.8,6.1c-0.1,0.9,0.6,1.4,1.4,1.4s1.7-0.4,1.8-1.4l0.8-6.1
		c0.1-0.9-0.7-1.4-1.4-1.4C23.6,11.9,22.6,12.5,22.5,13.3z"/>
	<path class="st0" d="M45.2,7l-0.7,5.1c-1.6-0.6-4.5-0.3-4.8,1.8L38,25.6h-6.1l1.6-11.8c0.7-5.1,4.1-7.3,8.6-7.3
		C42.8,6.5,43.7,6.6,45.2,7z"/>
	<path class="st0" d="M55.3,20l2.9,3c-2.6,2.6-5.2,3-7.4,3c-3.8,0-7.3-2.4-6.7-7l0.8-5.4c0.7-4.7,4.8-7.2,8.7-7.2s6.9,2.3,6.2,6.9
		c-0.7,4.4-5.5,6.2-9.8,5.2C49.7,21.4,53.5,21.6,55.3,20z M50.6,15c1.5,0.7,3.5,0.2,3.7-1.7c0.1-0.9-0.3-1.7-1.4-1.7
		c-0.9,0-1.9,0.6-2,1.7L50.6,15z"/>
	<path class="st0" d="M62.1,8c2.1-0.9,4.7-1.5,7.1-1.5c4.5,0,8.1,1.9,7.4,7.1l-1.7,12.1h-6.1l1.7-12c0.2-1.3-0.7-1.7-1.6-1.7
		c-0.4,0-0.9,0.1-1.3,0.2l-1.9,13.5h-6.1L62.1,8z"/>
	<path class="st0" d="M92.3,24.4c-2.4,0.9-5.2,1.6-8,1.6c-3.9,0-7.4-1.7-6.7-6.8l0.9-6.4c0.6-4.2,4.1-6.3,7.7-6.3
		c0.8,0,1.6,0.1,2.4,0.4L89.6,0h6.2L92.3,24.4z M87.9,11.8c-0.3-0.1-0.7-0.2-1.2-0.2c-0.9,0-2,0.5-2.2,1.6l-0.9,6.5
		c-0.1,1.1,0.8,1.5,1.8,1.5c0.4,0,0.8-0.1,1.2-0.2L87.9,11.8z"/>
	<path class="st0" d="M95.7,13.4c0.7-4.6,4.8-6.9,8.7-6.9c3.8,0,7.3,2.3,6.7,6.9l-0.8,5.9c-0.6,4.4-4.8,6.6-8.6,6.6
		c-3.8,0-7.3-2.2-6.7-6.6L95.7,13.4z M101.7,13.3l-0.8,6.1c-0.1,0.9,0.6,1.4,1.4,1.4s1.7-0.4,1.8-1.4l0.8-6.1
		c0.1-0.9-0.7-1.4-1.4-1.4S101.8,12.5,101.7,13.3z"/>
	<path class="st0" d="M113.7,8c2.1-0.9,4.7-1.5,7.1-1.5c4.5,0,8.1,1.9,7.4,7.1l-1.7,12.1h-6.1l1.7-12c0.2-1.3-0.7-1.7-1.6-1.7
		c-0.4,0-0.9,0.1-1.3,0.2l-1.9,13.5h-6.1L113.7,8z"/>
</g>
<g>
	<path class="st1" d="M137,14.4c3.2,0,5.4,2.6,5,5.7c-0.5,3.2-3.4,5.9-6.6,5.9s-5.4-2.6-4.9-5.9C130.9,16.9,133.8,14.4,137,14.4z"/>
</g>
</svg>
