<?xml version="1.0" encoding="UTF-8" standalone="no"?>
<!-- Generator: Adobe Illustrator 16.0.0, SVG Export Plug-In . SVG Version: 6.00 Build 0)  -->

<svg
   xmlns:dc="http://purl.org/dc/elements/1.1/"
   xmlns:cc="http://creativecommons.org/ns#"
   xmlns:rdf="http://www.w3.org/1999/02/22-rdf-syntax-ns#"
   xmlns:svg="http://www.w3.org/2000/svg"
   xmlns="http://www.w3.org/2000/svg"
   xmlns:sodipodi="http://sodipodi.sourceforge.net/DTD/sodipodi-0.dtd"
   xmlns:inkscape="http://www.inkscape.org/namespaces/inkscape"
   version="1.1"
   id="Capa_1"
   x="0px"
   y="0px"
   width="409.165px"
   height="409.164px"
   viewBox="0 0 409.165 409.164"
   style="enable-background:new 0 0 409.165 409.164;"
   xml:space="preserve"
   inkscape:version="0.91 r13725"
   sodipodi:docname="user-icon.svg"><metadata
     id="metadata45"><rdf:RDF><cc:Work
         rdf:about=""><dc:format>image/svg+xml</dc:format><dc:type
           rdf:resource="http://purl.org/dc/dcmitype/StillImage" /></cc:Work></rdf:RDF></metadata><defs
     id="defs43" /><sodipodi:namedview
     pagecolor="#ffffff"
     bordercolor="#666666"
     borderopacity="1"
     objecttolerance="10"
     gridtolerance="10"
     guidetolerance="10"
     inkscape:pageopacity="0"
     inkscape:pageshadow="2"
     inkscape:window-width="1920"
     inkscape:window-height="1017"
     id="namedview41"
     showgrid="false"
     inkscape:zoom="0.57678583"
     inkscape:cx="-55.479367"
     inkscape:cy="204.582"
     inkscape:window-x="354"
     inkscape:window-y="1072"
     inkscape:window-maximized="1"
     inkscape:current-layer="Capa_1" /><g
     id="g3"
     style="fill:#00bce2;fill-opacity:1"><g
       id="g5"
       style="fill:#00bce2;fill-opacity:1"><path
         d="M204.583,216.671c50.664,0,91.74-48.075,91.74-107.378c0-82.237-41.074-107.377-91.74-107.377    c-50.668,0-91.74,25.14-91.74,107.377C112.844,168.596,153.916,216.671,204.583,216.671z"
         id="path7"
         style="fill:#00bce2;fill-opacity:1" /><path
         d="M407.164,374.717L360.88,270.454c-2.117-4.771-5.836-8.728-10.465-11.138l-71.83-37.392    c-1.584-0.823-3.502-0.663-4.926,0.415c-20.316,15.366-44.203,23.488-69.076,23.488c-24.877,0-48.762-8.122-69.078-23.488    c-1.428-1.078-3.346-1.238-4.93-0.415L58.75,259.316c-4.631,2.41-8.346,6.365-10.465,11.138L2.001,374.717    c-3.191,7.188-2.537,15.412,1.75,22.005c4.285,6.592,11.537,10.526,19.4,10.526h362.861c7.863,0,15.117-3.936,19.402-10.527    C409.699,390.129,410.355,381.902,407.164,374.717z"
         id="path9"
         style="fill:#00bce2;fill-opacity:1" /></g></g><g
     id="g11"
     style="fill:#00bce2;fill-opacity:1" /><g
     id="g13"
     style="fill:#00bce2;fill-opacity:1" /><g
     id="g15"
     style="fill:#00bce2;fill-opacity:1" /><g
     id="g17"
     style="fill:#00bce2;fill-opacity:1" /><g
     id="g19"
     style="fill:#00bce2;fill-opacity:1" /><g
     id="g21"
     style="fill:#00bce2;fill-opacity:1" /><g
     id="g23"
     style="fill:#00bce2;fill-opacity:1" /><g
     id="g25"
     style="fill:#00bce2;fill-opacity:1" /><g
     id="g27"
     style="fill:#00bce2;fill-opacity:1" /><g
     id="g29"
     style="fill:#00bce2;fill-opacity:1" /><g
     id="g31"
     style="fill:#00bce2;fill-opacity:1" /><g
     id="g33"
     style="fill:#00bce2;fill-opacity:1" /><g
     id="g35"
     style="fill:#00bce2;fill-opacity:1" /><g
     id="g37"
     style="fill:#00bce2;fill-opacity:1" /><g
     id="g39"
     style="fill:#00bce2;fill-opacity:1" /></svg>